<?xml version="1.0" encoding="UTF-8" standalone="no"?><!DOCTYPE svg PUBLIC "-//W3C//DTD SVG 1.1//EN" "http://www.w3.org/Graphics/SVG/1.1/DTD/svg11.dtd"><svg width="100%" height="100%" viewBox="0 0 2560 463" version="1.1" xmlns="http://www.w3.org/2000/svg" xmlns:xlink="http://www.w3.org/1999/xlink" xml:space="preserve" xmlns:serif="http://www.serif.com/" style="fill-rule:evenodd;clip-rule:evenodd;stroke-miterlimit:1.5;"><g transform="matrix(1,0,0,1,-364.95,-835.597)"><g transform="matrix(1.15,0,0,1,-53.6558,0)"><text x="357.705px" y="1157.48px" style="font-family:'LibreCaslonText-Bold', 'Libre Caslon Text';font-weight:700;font-size:150px;">R</text></g><g transform="matrix(1.15,0,0,1,-75.5978,0)"><text x="503.985px" y="1157.48px" style="font-family:'LibreCaslonText-Bold', 'Libre Caslon Text';font-weight:700;font-size:103.247px;">O<tspan x="599.856px 702.38px 790.243px " y="1157.48px 1157.48px 1157.48px ">HAN</tspan></text></g><g transform="matrix(1.15,0,0,1,-150.219,0)"><text x="1001.46px" y="1157.48px" style="font-family:'LibreCaslonText-Bold', 'Libre Caslon Text';font-weight:700;font-size:125px;">•</text></g><g transform="matrix(1.15,0,0,1,-161.043,0)"><text x="1122.07px" y="1157.48px" style="font-family:'LibreCaslonText-Bold', 'Libre Caslon Text';font-weight:700;font-size:150px;"><tspan x="1122.07px " y="1157.48px ">M</tspan></text></g><g transform="matrix(1.15,0,0,1,-198.976,0)"><text x="1326.51px" y="1157.48px" style="font-family:'LibreCaslonText-Bold', 'Libre Caslon Text';font-weight:700;font-size:103.247px;">A<tspan x="1414.37px " y="1157.48px ">H</tspan></text></g><g transform="matrix(1.15,0,0,1,-240.175,0)"><text x="1601.17px" y="1157.48px" style="font-family:'LibreCaslonText-Bold', 'Libre Caslon Text';font-weight:700;font-size:125px;">&amp;</text></g><g transform="matrix(1.15,0,0,1,-267.831,0)"><text x="1785.54px" y="1157.48px" style="font-family:'LibreCaslonText-Bold', 'Libre Caslon Text';font-weight:700;font-size:150px;">P</text></g><g transform="matrix(1.15,0,0,1,-286.824,0)"><text x="1912.16px" y="1157.48px" style="font-family:'LibreCaslonText-Bold', 'Libre Caslon Text';font-weight:700;font-size:103.247px;">A<tspan x="2000.02px 2086.23px 2173.78px 2271.66px 2354.36px 2441.91px " y="1157.48px 1157.48px 1157.48px 1157.48px 1157.48px 1157.48px ">RTNERS</tspan></text></g><g transform="matrix(1.15,0,0,1,-399.334,0)"><text x="2662.23px" y="1157.48px" style="font-family:'LibreCaslonText-Bold', 'Libre Caslon Text';font-weight:700;font-size:103.247px;">L<tspan x="2741.62px 2821.02px " y="1157.48px 1157.48px ">LP</tspan></text></g><text x="888.556px" y="1276.13px" style="font-family:'LibreCaslonText-Bold', 'Libre Caslon Text';font-weight:700;font-size:83.333px;">C<tspan x="957.139px 1014.72px 1064.31px 1106.31px 1140.97px 1192.14px 1233.14px 1284.31px 1341.31px 1359.97px 1424.47px 1472.89px 1521.31px 1575.64px 1631.81px 1689.31px 1723.97px 1773.56px 1831.06px 1865.72px 1905.64px 1929.56px 1951.47px 2006.22px 2037.06px 2094.89px 2143.89px 2193.47px 2250.72px 2305.06px 2346.06px " y="1276.13px 1276.13px 1276.13px 1276.13px 1276.13px 1276.13px 1276.13px 1276.13px 1276.13px 1276.13px 1276.13px 1276.13px 1276.13px 1276.13px 1276.13px 1276.13px 1276.13px 1276.13px 1276.13px 1276.13px 1276.13px 1276.13px 1276.13px 1276.13px 1276.13px 1276.13px 1276.13px 1276.13px 1276.13px 1276.13px 1276.13px ">hartered Accountants, Singapore</tspan></text></g><path d="M1279.66,28.687l65.166,130.452l-130.331,0l65.165,-130.452Z"/><path d="M1071.13,99.186l417.057,0" style="fill:none;stroke:#000;stroke-width:11.5px;"/><path d="M1071.13,76.982l125.839,0" style="fill:none;stroke:#000;stroke-width:11.5px;"/><path d="M1362.35,76.982l125.839,0" style="fill:none;stroke:#000;stroke-width:11.5px;"/><path d="M1071.13,54.778l125.839,0" style="fill:none;stroke:#000;stroke-width:11.5px;"/><path d="M1362.35,54.778l125.839,0" style="fill:none;stroke:#000;stroke-width:11.5px;"/><path d="M1071.13,32.574l125.839,0" style="fill:none;stroke:#000;stroke-width:11.5px;"/><path d="M1362.35,32.574l125.839,0" style="fill:none;stroke:#000;stroke-width:11.5px;"/><path d="M1071.13,10.37l125.839,0" style="fill:none;stroke:#000;stroke-width:11.5px;"/><path d="M1362.35,10.37l125.839,0" style="fill:none;stroke:#000;stroke-width:11.5px;"/></svg>